<?xml version="1.0" encoding="UTF-8" standalone="no"?>
<svg
   inkscape:version="1.3.2 (091e20ef0f, 2023-11-25)"
   sodipodi:docname="kalpa-logo.svg"
   id="svg837"
   version="1.1"
   viewBox="0 0 30.076767 29.696024"
   preserveAspectRatio="xMidYMid"
   height="29.696024"
   width="30.076767"
   xmlns:inkscape="http://www.inkscape.org/namespaces/inkscape"
   xmlns:sodipodi="http://sodipodi.sourceforge.net/DTD/sodipodi-0.dtd"
   xmlns="http://www.w3.org/2000/svg"
   xmlns:svg="http://www.w3.org/2000/svg"
   xmlns:rdf="http://www.w3.org/1999/02/22-rdf-syntax-ns#"
   xmlns:cc="http://creativecommons.org/ns#"
   xmlns:dc="http://purl.org/dc/elements/1.1/">
  <metadata
     id="metadata843">
    <rdf:RDF>
      <cc:Work
         rdf:about="">
        <dc:format>image/svg+xml</dc:format>
        <dc:type
           rdf:resource="http://purl.org/dc/dcmitype/StillImage" />
      </cc:Work>
    </rdf:RDF>
  </metadata>
  <defs
     id="defs841" />
  <sodipodi:namedview
     fit-margin-bottom="0"
     fit-margin-right="0"
     fit-margin-top="0"
     fit-margin-left="0"
     inkscape:current-layer="svg837"
     inkscape:window-maximized="0"
     inkscape:window-y="0"
     inkscape:window-x="0"
     inkscape:cy="14.937631"
     inkscape:cx="13.744388"
     inkscape:zoom="11.313709"
     showgrid="false"
     id="namedview839"
     inkscape:window-height="818"
     inkscape:window-width="1374"
     inkscape:pageshadow="2"
     inkscape:pageopacity="0"
     guidetolerance="10"
     gridtolerance="10"
     objecttolerance="10"
     borderopacity="1"
     bordercolor="#666666"
     pagecolor="#ffffff"
     inkscape:showpageshadow="2"
     inkscape:pagecheckerboard="0"
     inkscape:deskcolor="#d1d1d1" />
  <path
     id="path2"
     style="fill:#73ba25;fill-opacity:1"
     d="m 5.949338,0.00254476 c -0.06727,0.009 -0.132397,0.04147 -0.181641,0.09375 L 3.4884,2.5064508 c -0.09583,0.101655 -0.109256,0.255355 -0.0332,0.373047 l 2.873047,4.445312 C 5.864226,8.1571458 5.497106,9.0518458 5.244263,9.9908258 L 0.234497,11.180279 C 0.095071,11.213249 -0.003913,11.3391 1.2200499e-4,11.483013 L 0.093872,14.79942 c 0.0039,0.140258 0.104183,0.260194 0.240235,0.289062 l 4.925781,1.058594 c 0.29113,1.071131 0.722526,2.081194 1.283203,3.005859 l -2.710938,4.398438 c -0.07562,0.122921 -0.05414,0.280116 0.05078,0.378906 l 2.410156,2.279297 c 0.101358,0.09556 0.256786,0.110787 0.375,0.03516 l 4.361327,-2.820316 c 0.885767,0.47855 1.836834,0.849268 2.837891,1.089843 l 1.175781,4.949219 c 0.03309,0.140292 0.159747,0.236431 0.302734,0.232422 l 3.316406,-0.09375 c 0.139422,-0.0039 0.257666,-0.102583 0.28711,-0.240234 l 1.080078,-5.021485 c 1.016405,-0.305106 1.973321,-0.74403 2.851562,-1.294922 l 4.453126,2.744141 c 0.122459,0.07583 0.281657,0.05604 0.380859,-0.04883 l 2.279297,-2.410156 c 0.09642,-0.101952 0.109441,-0.255672 0.0332,-0.373047 l -1.669922,-2.585938 -0.511719,0.177735 c -0.07462,0.02591 -0.156999,-1.5e-4 -0.203125,-0.06445 0,0 -1.060677,-1.461751 -2.429687,-3.349609 -1.485836,3.120791 -4.624904,5.316371 -8.31836,5.419922 -2.384803,0.06686 -4.587763,-0.751729 -6.296875,-2.15625 l 0.478516,-0.478516 c 3.466883,2.836428 8.608986,2.641015 11.841797,-0.591797 3.232811,-3.232809 3.430176,-8.374914 0.59375,-11.8417962 l 3.15625,-3.15625 a 0.88388348,0.88388373 45 1 0 -1.25,-1.25 l -3.15625,3.15625 C 18.794952,3.4004958 13.652848,3.5959078 10.420038,6.8287178 7.187226,10.061529 6.991815,15.203633 9.828241,18.670515 L 9.341916,19.154888 C 8.013822,17.571 7.189498,15.547517 7.127072,13.320904 7.018841,9.4604988 9.228572,6.0746378 12.492307,4.4947318 l -0.07031,-2.451172 c -0.595689,0.227324 -1.168952,0.498063 -1.71289,0.814453 l -0.002,-0.002 -4.558593,-2.81054704 c -0.06138,-0.03769 -0.131966,-0.0518 -0.199219,-0.04297 z M 16.627072,6.0064508 c 1.793162,-0.0089 3.590189,0.664472 4.976563,2.017578 a 0.88386155,0.8838618 45 0 0 0.11914,0.119141 c 2.708688,2.7725962 2.695717,7.1870972 -0.05273,9.9355462 -2.747621,2.747622 -7.160845,2.760899 -9.933594,0.05469 a 0.88386155,0.8838618 45 0 0 -0.11914,-0.119141 c -2.708689,-2.772597 -2.695715,-7.187098 0.05273,-9.9355472 1.37381,-1.37381 3.16387,-2.063404 4.957031,-2.072265 z m 0.04297,3.542969 c -0.906558,0 -1.813432,0.342728 -2.5,1.0292962 -1.373137,1.373136 -1.37314,3.626861 0,5 1.37314,1.37314 3.626863,1.373137 5,0 1.373137,-1.373136 1.373142,-3.626861 0,-5 -0.68657,-0.6865692 -1.593442,-1.0292972 -2.5,-1.0292962 z m 0,1.7558592 c 0.450503,0 0.901163,0.1746 1.25,0.523437 0.697675,0.697675 0.697671,1.802328 0,2.5 -0.697671,0.697672 -1.802326,0.697676 -2.5,0 -0.697676,-0.697675 -0.697671,-1.802328 0,-2.5 0.348836,-0.348835 0.799497,-0.523437 1.25,-0.523437 z" />
</svg>
