<?xml version="1.0" encoding="UTF-8" standalone="no"?>
<!-- Created with Inkscape (http://www.inkscape.org/) -->

<svg
   version="1.1"
   id="svg1"
   width="400"
   height="293"
   viewBox="0 0 400 293"
   xmlns="http://www.w3.org/2000/svg"
   xmlns:svg="http://www.w3.org/2000/svg">
  <defs
     id="defs1" />
  <g
     id="g1">
    <path
       style="fill:#000000"
       d="m 14.726305,252.86235 c 0.339919,-0.55 3.966476,-1 8.059017,-1 h 7.440983 l -0.01128,-25.25 -0.01128,-25.25 -4.428418,-7.44306 c -2.435629,-4.09368 -4.203994,-7.80618 -3.929699,-8.25 0.274288,-0.44382 6.289281,-0.80694 13.366644,-0.80694 h 12.867935 l 4.39474,7.25 4.39474,7.25 15.51538,0.27457 15.51538,0.27456 4.42486,-7.27456 4.42485,-7.27457 12.432613,-0.28234 c 6.83793,-0.15529 13.01916,-0.0573 13.73606,0.21784 0.9276,0.35596 0.006,2.63654 -3.19453,7.90898 l -4.49799,7.4088 v 25.62336 25.62336 h 11.26287 c 10.61401,0 11.31974,-0.12592 12.25,-2.18565 0.66828,-1.47968 4.12438,-3.49845 10.69989,-6.25 l 9.71275,-4.06435 1.9993,-5.5 c 1.78671,-4.91515 2.03194,-8.47742 2.3062,-33.5 0.28471,-25.97571 0.45908,-28.33199 2.41189,-32.59215 6.11423,-13.33851 21.29998,-12.83588 54.2446,1.79544 1.86637,0.82889 0.78418,-6.46035 -2.50707,-16.88676 l -2.42541,-7.68347 -11.92056,4.93347 c -6.55632,2.71341 -12.51519,4.93347 -13.24194,4.93347 -0.72676,0 -8.96489,-6.34466 -18.30695,-14.09924 -9.34206,-7.75458 -19.01057,-15.46899 -21.48557,-17.14313 -10.73558,-7.2618 -12.93198,-10.63659 -14.48582,-22.25763 -0.3677,-2.749996 -1.5018,-6.433966 -2.52023,-8.186586 -1.571,-2.70358 -1.63988,-3.36238 -0.45436,-4.34626 2.12401,-1.76278 6.72927,3.84676 12.15217,14.802196 2.55469,5.16103 6.04146,10.54525 7.86698,12.14808 1.80328,1.5833 7.92777,5.44759 13.60998,8.5873 5.6822,3.13971 12.87411,7.23558 15.98201,9.10192 3.1079,1.86634 6.4275,3.39335 7.37689,3.39335 0.94939,0 4.95399,-1.7818 8.89911,-3.95956 6.42716,-3.54787 7.68548,-4.76955 12.1023,-11.75 2.71114,-4.28474 7.81696,-11.37088 11.34627,-15.74697 7.11371,-8.820476 7.85323,-11.351056 6.42335,-21.980376 -0.75754,-5.63133 -0.9679,-5.98075 -4.08674,-6.788465 -5.11362,-1.324325 -7.20365,-5.667577 -7.20817,-14.97917 -0.003,-6.882207 -0.27058,-7.971382 -2.50374,-10.204546 -2.96089,-2.960887 -3.28093,-7.430263 -0.75,-10.473742 1.14529,-1.377224 5.53791,-3.181857 12.71194,-5.222485 9.9726,-2.836671 11.42174,-3.015182 16.05667,-1.977931 6.37503,1.42667 11.60294,5.654708 14.63013,11.832038 2.02597,4.134222 2.40365,6.764031 2.90835,20.251211 0.68106,18.2002 0.98082,19.00773 11.07527,29.83587 4.19416,4.498996 7.28113,8.812206 7.98261,11.153536 2.68214,8.95217 -2.2408,16.01059 -11.1667,16.01059 h -4.89827 l 0.5426,3.25 c 3.36569,20.1595 6.21951,29.49991 15.23878,49.87574 3.31725,7.49415 6.31711,15.14883 6.66634,17.0104 0.877,4.67484 -0.84582,8.54668 -4.85566,10.91255 -2.27522,1.34241 -3.94086,3.44519 -5.06912,6.39949 -2.58666,6.77308 -7.08564,12.26583 -12.15816,14.84376 l -4.60932,2.34252 11.34727,9.47451 c 19.47771,16.26309 16.6037,14.89103 31.19166,14.89103 h 12.65561 v -38.5 -38.5 h 12.5 12.5 v -4.77748 -4.77747 l -6.67675,-2.90871 c -9.04167,-3.93898 -15.32325,-9.98248 -15.32325,-14.74248 0,-10.15661 9.99253,-6.25044 18.01274,7.04135 l 4.02151,6.66479 -0.26712,-9.85264 -0.26713,-9.85264 -4.59241,-1.7409 c -6.40928,-2.42963 -13.62416,-7.60504 -15.40629,-11.05131 -1.80936,-3.49891 -1.93498,-7.16883 -0.3013,-8.80251 3.63174,-3.63174 11.46186,1.88118 17.3002,12.18047 l 3.46896,6.11953 0.0154,-9.02748 0.0154,-9.02747 -6.48748,-2.82626 c -9.95965,-4.33889 -15.37199,-12.00075 -11.02551,-15.60801 3.47703,-2.885666 9.19818,1.46834 14.44963,10.99671 l 3.02713,5.49251 0.21178,-15 c 0.20454,-14.487036 0.23081,-14.658016 0.76812,-4.999996 l 0.55633,9.999996 2.66969,-5.05827 c 4.73907,-8.979136 10.85327,-13.798096 15.32807,-12.080956 2.02875,0.7785 1.90774,5.61105 -0.217,8.66672 -2.63549,3.790186 -5.22207,5.651616 -12.03076,8.657926 l -6.25,2.75963 v 13.77747 c 0,7.57762 0.21852,13.77748 0.4856,13.77748 0.26709,0 1.82122,-2.64584 3.45364,-5.87964 6.80726,-13.4851 17.90733,-18.96277 18.87092,-9.31243 0.55878,5.59618 -9.51423,14.00791 -21.06016,17.58685 -1.52684,0.47328 -1.7471,1.91727 -1.72729,11.32384 l 0.0227,10.78138 3.48231,-6.46299 c 5.98572,-11.10915 13.99654,-17.33656 18.01322,-14.00302 2.0079,1.66642 1.82154,5.8593 -0.42412,9.54191 -2.25697,3.70116 -9.81841,8.88069 -16.35263,11.20144 l -4.76415,1.6921 v 4.7354 4.73541 l 12.75,0.27987 12.75,0.27988 0.26188,38.25 0.26189,38.25 h 5.4291 c 2.986,0 5.70721,0.45 6.04713,1 0.41116,0.66527 -60.34262,1 -181.5,1 -121.157383,0 -181.911164,-0.33473 -181.500005,-1 z m 64.500002,-7 v -6 h 6 6 v 6 6 h 11.500003 11.5 v -25 -25 h -11.5 -11.500003 v 6.10699 c 0,5.44874 -0.18863,6.02233 -1.75,5.32152 -2.22673,-0.99943 -6.25501,-1.00858 -8.45001,-0.0192 -1.48686,0.67021 -1.73761,-0.0283 -2,-5.57153 l -0.29999,-6.33778 h -10.5 -10.5 l -0.26717,25.25 -0.26717,25.25 h 11.01717 11.01717 z m 11,0.5 v -5.5 h -5 -5 v 5.5 5.5 h 5 5 z m 165.000003,-5.5 c 0,-6.05 -0.2307,-11 -0.51266,-11 -0.28196,0 -3.76946,0.90499 -7.75,2.01109 -3.98054,1.10609 -10.38734,2.23201 -14.23734,2.50204 -6.62517,0.46466 -6.44414,0.3887 3.38078,-1.41857 12.81159,-2.35667 25.7939,-7.26828 31.00789,-11.73126 3.43471,-2.93999 7.34812,-9.14516 8.3024,-13.16446 0.23323,-0.98233 -1.89641,-1.35714 -8.69107,-1.52961 -5.87849,-0.14922 -12.46835,-1.14232 -19,-2.86333 -5.5,-1.44918 -12.66437,-3.11572 -15.92082,-3.70342 l -5.92081,-1.06854 -16.57919,9.42039 c -18.91131,10.74552 -32.30078,20.22121 -35.13019,24.86153 -2.56006,4.19858 -2.54189,11.19945 0.04,15.43414 l 1.98161,3.25 h 39.5147 39.5147 z m 14.03722,9.06954 c -1.4035,-2.62246 -9.8981,-8.06954 -12.58427,-8.06954 -0.24912,0 -0.45295,2.25 -0.45295,5 v 5 h 7.03518 c 6.64083,0 6.97727,-0.10821 6.00204,-1.93046 z m 95.96278,-8.56954 v -10.5 h -25 -25 v 10.5 10.5 h 25 25 z m -44.66813,1.92246 c -0.33295,-0.86765 0.13118,-2.31408 1.03139,-3.21429 1.47227,-1.47227 1.79116,-1.48232 3.17348,-0.1 0.86939,0.86939 1.25719,2.26525 0.89302,3.21429 -0.81419,2.12173 -4.29587,2.19003 -5.09789,0.1 z m 11.75606,0.18349 c -0.89518,-1.07862 -0.77742,-1.7736 0.52041,-3.07143 1.48795,-1.48795 1.84608,-1.50867 3.17126,-0.18349 1.70115,1.70115 0.98732,4.64897 -1.12577,4.64897 -0.77492,0 -1.92957,-0.62732 -2.5659,-1.39405 z m 11.61331,0.76195 c -1.18199,-1.18199 -0.77901,-4.12408 0.63944,-4.66839 2.01563,-0.77347 3.90297,0.79679 3.49623,2.90883 -0.37094,1.92615 -2.89514,3.00009 -4.13567,1.75956 z m 10.63063,-0.94544 c -0.33295,-0.86765 0.0669,-2.24979 0.88853,-3.07143 1.32518,-1.32518 1.68331,-1.30446 3.17126,0.18349 1.29783,1.29783 1.41559,1.99281 0.52041,3.07143 -1.5433,1.85956 -3.83138,1.76789 -4.5802,-0.18349 z m -182.81733,-7.76727 c 0.72324,-2.11465 2.35441,-4.95124 3.62484,-6.30355 l 2.30986,-2.45874 -6.32904,0.30355 -6.32904,0.30355 -1.89477,5 c -1.04212,2.75 -1.89513,5.3045 -1.89558,5.67668 -0.001,0.96109 3.01012,1.6629 6.34898,1.47969 2.35671,-0.12931 3.0773,-0.82161 4.16475,-4.00118 z m 8.83288,-14.17327 c 0.3406,-2.48494 0.87045,-9.57244 1.17743,-15.75 0.30699,-6.17756 0.79339,-13.56664 1.0809,-16.42019 l 0.52274,-5.18827 6.68575,4.32125 c 3.67717,2.37668 11.05439,6.65393 16.39383,9.50499 l 9.70807,5.18376 4.54193,-2.66175 c 4.84174,-2.83746 5.20779,-3.40585 3.37418,-5.23946 -0.65772,-0.65772 -1.42206,-5.80317 -1.75,-11.78086 -0.6716,-12.24172 -0.26181,-11.6743 -11.94311,-16.53724 -11.58183,-4.82153 -26.35421,-8.25895 -31.91155,-7.42557 -5.58977,0.83824 -10.44466,5.22627 -12.23488,11.05834 -0.74842,2.43819 -1.4082,13.82095 -1.72166,29.70308 l -0.50822,25.75 h 7.98266 7.98266 z m 7.85467,-1.83572 c 3.46385,-2.39459 9.67291,-6.27436 13.79791,-8.62171 13.86916,-7.8923 13.69312,-6.3354 1.48401,-13.12492 -5.87749,-3.26848 -12.61682,-7.2709 -14.97629,-8.89426 l -4.28994,-2.95156 -0.71554,12.22313 c -0.39355,6.72271 -1.03154,15.26062 -1.41776,18.97312 -0.38621,3.7125 -0.58478,6.75 -0.44126,6.75 0.14353,0 3.09502,-1.95921 6.55887,-4.3538 z m 176.79791,-5.1462 v -4.5 h -25 -25 v 4.5 4.5 h 25 25 z m -280.000003,-3.7891 c 0.825,0 2.2875,0.33819 3.25,0.75154 1.53633,0.65978 1.75,0.12798 1.75,-4.35545 v -5.10699 h -5 -5 v 5.10699 c 0,4.48343 0.21367,5.01523 1.75,4.35545 0.9625,-0.41335 2.425,-0.75154 3.25,-0.75154 z m 190.474943,-5.80891 c 2.39832,-0.6039 5.39251,-2.19644 6.65376,-3.53898 3.62612,-3.85984 2.80924,-8.56506 -4.19139,-24.14224 -7.88912,-17.5542 -12.27388,-30.96618 -14.58009,-44.59721 -1.61136,-9.52407 -2.2214,-11.2601 -4.98738,-14.1929 -3.48922,-3.69964 -6.36984,-10.99115 -6.36984,-16.12348 0,-2.379396 -0.94504,-4.367766 -3.29434,-6.931286 l -3.29433,-3.59475 -3.86545,2.62316 c -2.126,1.44274 -5.60523,2.90137 -7.73164,3.24139 -2.99402,0.47877 -4.90429,1.7728 -8.46793,5.736266 -4.75654,5.29021 -11.25235,14.1853 -15.38264,21.06434 l -2.36942,3.94629 7.77966,-4.19629 c 8.90926,-4.8056 12.82459,-5.72503 4.81175,-1.12994 -2.92289,1.67617 -5.15269,3.35945 -4.95512,3.74062 0.19758,0.38116 1.84138,3.72503 3.65289,7.43082 2.97398,6.08383 3.4875,6.63405 5.29076,5.66898 1.09841,-0.58785 2.24725,-0.81867 2.55299,-0.51293 0.55501,0.55501 -8.07304,4.60615 -9.81009,4.60615 -1.19534,0 -1.23559,-0.23735 1.11835,6.59345 2.6813,7.78072 4.96456,21.11279 4.96456,28.98832 0,8.12962 1.66483,15.83427 3.81158,17.63961 0.92863,0.78095 5.28842,1.91884 9.68842,2.52864 4.4,0.60981 11.375,2.23735 15.5,3.61677 8.20129,2.74254 16.51974,3.28654 23.47494,1.5352 z M 55.226307,199.43402 c 0,-0.23558 -1.6276,-3.16058 -3.61688,-6.5 l -3.61687,-6.07167 H 35.52787 23.063186 l 1.942184,3.25 c 1.068201,1.7875 2.776926,4.7125 3.797167,6.5 l 1.854983,3.25 h 12.284393 c 6.756414,0 12.284394,-0.19275 12.284394,-0.42833 z m 63.174393,-6.3516 3.83858,-6.27992 -12.6878,0.27992 -12.687803,0.27993 -3.27976,5.5 c -1.80386,3.025 -3.29727,5.85135 -3.31868,6.28078 -0.0214,0.42943 5.43663,0.65443 12.128983,0.5 l 12.16791,-0.28078 z m 246.82561,-5.72007 v -10.5 h -25 -25 v 10.5 10.5 h 25 25 z m -44.66813,0.92246 c -0.33295,-0.86765 0.0392,-2.22205 0.82688,-3.00978 1.93034,-1.93034 5.27207,0.30105 4.28869,2.8637 -0.82831,2.15854 -4.30522,2.25782 -5.11557,0.14608 z m 11.75606,0.18349 c -0.89518,-1.07862 -0.77742,-1.7736 0.52041,-3.07143 1.48795,-1.48795 1.84608,-1.50867 3.17126,-0.18349 1.70115,1.70115 0.98732,4.64897 -1.12577,4.64897 -0.77492,0 -1.92957,-0.62732 -2.5659,-1.39405 z m 11.61331,0.76195 c -1.18199,-1.18199 -0.77901,-4.12408 0.63944,-4.66839 2.01563,-0.77347 3.90297,0.79679 3.49623,2.90883 -0.37094,1.92615 -2.89514,3.00009 -4.13567,1.75956 z m 10.63063,-0.94544 c -0.33295,-0.86765 0.0669,-2.24979 0.88853,-3.07143 1.32518,-1.32518 1.68331,-1.30446 3.17126,0.18349 1.29783,1.29783 1.41559,1.99281 0.52041,3.07143 -1.5433,1.85956 -3.83138,1.76789 -4.5802,-0.18349 z m -146.08187,-41.9444 c 6.71335,-2.78265 11.75,-5.44347 11.75,-6.20743 0,-1.24559 -3.74755,-9.03039 -5.84932,-12.15081 -0.74772,-1.11012 -3.03923,-0.27848 -11.71055,4.25 -10.32756,5.39342 -14.93226,6.67622 -16.99013,4.73319 -0.5225,-0.49334 -7.25,-4.38911 -14.95,-8.65727 -19.3535,-10.72777 -20.70402,-11.91663 -26.49462,-23.32321 -5.08827,-10.023086 -9.34871,-16.095426 -10.49565,-14.959286 -0.36824,0.36478 0.02,1.71562 0.8628,3.00187 0.84279,1.28626 2.04527,5.7128 2.67218,9.836766 0.62691,4.12397 1.90047,8.72233 2.83013,10.21858 0.92965,1.49625 5.27563,5.34793 9.65772,8.55927 4.38209,3.21135 14.74374,11.48341 23.02589,18.38236 8.28214,6.89895 15.70714,12.77632 16.5,13.06082 1.55505,0.55801 1.67207,0.51689 19.19155,-6.74485 z m 29.25,-51.430916 c 6.75548,-3.22393 6.88657,-3.39104 5.22795,-6.66444 -0.80336,-1.58548 -1.78606,-4.6827 -2.18379,-6.8827 -1.19023,-6.583753 -2.20947,-6.936043 -6.62822,-2.29098 -3.77138,3.96455 -3.91594,4.36891 -3.91594,10.95375 0,7.81106 0.57826,8.18766 7.5,4.88437 z M 233.5698,73.918867 c 0.68813,-0.688134 0.56628,-1.8566 -0.37753,-3.620123 -0.82307,-1.53791 -1.24473,-4.514402 -1.02994,-7.270206 0.72343,-9.281729 0.46302,-11.11252 -1.94526,-13.676021 l -2.35925,-2.511307 -2.56576,2.388385 c -1.41116,1.313613 -3.63233,2.938146 -4.93593,3.610074 -2.26522,1.16759 -2.35082,1.590442 -1.9331,9.549099 0.44866,8.548182 1.44819,10.932651 5.26856,12.568627 2.41478,1.034066 8.43895,0.400725 9.87821,-1.038528 z M 140.4917,191.61235 c -1.29014,-1.64641 -14.27014,-27.0527 -14.26746,-27.92627 0.002,-0.64972 28.16977,-15.82373 29.37387,-15.82373 0.89483,0 4.84288,8.11866 4.24082,8.72071 -0.28979,0.2898 -1.31754,-1.1311 -2.28389,-3.15754 -1.23873,-2.59765 -2.2638,-3.55191 -3.47519,-3.23512 -0.94501,0.24713 -7.33972,3.43152 -14.21045,7.07642 l -12.49226,6.6271 7.08375,13.73422 c 3.89605,7.55381 7.20314,13.88773 7.34908,14.07537 0.14593,0.18764 3.22431,-1.31358 6.84084,-3.33606 3.61652,-2.02248 6.57384,-3.301 6.5718,-2.84117 -0.003,0.76358 -11.79665,7.33607 -13.16339,7.33607 -0.32341,0 -1.0288,-0.5625 -1.56752,-1.25 z m 3.87498,-18.7914 c -1.80166,-3.27723 -2.88904,-5.9586 -2.41638,-5.9586 0.89904,0 6.62273,10.98661 6.03163,11.57771 -0.18672,0.18672 -1.81358,-2.34188 -3.61525,-5.61911 z m -3.64037,2.0414 c -0.90611,-1.75222 -1.42247,-3.41086 -1.14747,-3.68586 0.275,-0.275 1.24136,0.93364 2.14747,2.68586 0.90611,1.75222 1.42247,3.41086 1.14747,3.68586 -0.275,0.275 -1.24136,-0.93364 -2.14747,-2.68586 z m 11.16076,-5.61911 c -1.51572,-3.09052 -2.53893,-5.83605 -2.27379,-6.10119 0.26514,-0.26515 1.86802,2.26345 3.56195,5.61911 1.69393,3.35565 2.71714,6.10119 2.27379,6.10119 -0.44334,0 -2.04622,-2.5286 -3.56195,-5.61911 z m -3.95937,1.11911 c -0.91797,-1.925 -1.30966,-3.5 -0.87042,-3.5 0.43923,0 1.54967,1.575 2.46764,3.5 0.91797,1.925 1.30966,3.5 0.87042,3.5 -0.43923,0 -1.54967,-1.575 -2.46764,-3.5 z m 7.72765,-2.96796 c -0.88939,-1.35737 -1.45027,-2.96836 -1.2464,-3.57996 0.20387,-0.61161 1.13889,0.49897 2.07784,2.46795 1.96824,4.12745 1.52914,4.71472 -0.83144,1.11201 z m -95.429043,-4.91563 c -9.625,-2.8641 -18.220695,-5.48471 -19.101541,-5.82358 -1.39134,-0.53526 -0.834324,-3.27377 4.243981,-20.86513 3.21504,-11.13695 5.99927,-20.40274 6.18717,-20.59065 0.35706,-0.35706 40.58332,11.20462 41.10379,11.8139 0.16399,0.19198 -1.67136,7.09905 -4.07858,15.34905 -2.40721,8.25 -5.05938,17.3625 -5.89372,20.25 -1.09657,3.79507 -1.99421,5.22559 -3.23904,5.16193 -0.94713,-0.0484 -9.59706,-2.43142 -19.22206,-5.29552 z m 21.88088,-2.36641 c 1.08106,-3.7125 3.59806,-12.32956 5.59333,-19.14901 1.99527,-6.81946 3.26732,-12.72689 2.82678,-13.12763 -1.25768,-1.14404 -37.27123,-11.33645 -37.88549,-10.7222 -0.76073,0.76074 -7.32382,22.74884 -6.79015,22.74884 0.23743,0 3.07623,-1.33496 6.30845,-2.96658 6.49722,-3.27979 6.18993,-3.39289 10.09816,3.71658 1.28498,2.3375 2.67773,4.25 3.09502,4.25 0.41728,0 2.26877,-0.89096 4.11441,-1.97992 l 3.35572,-1.97992 3.77847,6.56956 c 2.07816,3.61325 3.56712,6.78091 3.30878,7.03925 -0.25833,0.25833 -1.94149,-2.14451 -3.74036,-5.33964 -1.79887,-3.19513 -3.37814,-5.9528 -3.50948,-6.12815 -0.13135,-0.17534 -4.85501,2.19 -10.49702,5.25632 -5.64201,3.06632 -10.45299,5.38035 -10.69106,5.14228 -0.38561,-0.38561 8.72427,-5.99494 11.25356,-6.92929 0.95193,-0.35165 -3.16929,-9.2851 -4.74663,-10.28911 -0.41065,-0.26139 -3.54412,1.01287 -6.96327,2.83169 -6.08639,3.23764 -6.25545,3.44 -8.068925,9.65804 -1.018755,3.49312 -1.710284,6.48696 -1.53673,6.653 0.32597,0.31184 36.763725,11.24027 38.023205,11.40393 0.38921,0.0506 1.59216,-2.94554 2.67323,-6.65804 z m -5.30945,-23.82143 c -2.11385,-2.11384 -1.98,-4.13954 0.35613,-5.3898 3.93959,-2.1084 6.98413,1.2146 4.44029,4.84643 -1.76946,2.52627 -2.70729,2.63251 -4.79642,0.54337 z m 43.054293,12.05429 c -3.90168,-3.90168 0.53894,-11.07065 5.2843,-8.53101 3.14536,1.68334 4.15292,4.28691 2.75209,7.11148 -1.46631,2.9566 -5.74376,3.71216 -8.03639,1.41953 z M 96.887727,107.11235 c -1.53524,-2.52165 -12.82421,-48.46704 -12.06962,-49.122554 1.24532,-1.081814 48.521253,-13.347727 49.123663,-12.745314 0.83425,0.83425 13.28978,48.945962 12.79866,49.437092 -0.6446,0.6446 -0.72419,0.37383 -7.00108,-23.81922 -3.068,-11.825 -5.90103,-22.211035 -6.29561,-23.080078 -0.62479,-1.376036 -3.72011,-0.783854 -23.9699,4.585801 -12.788863,3.391234 -23.443333,6.356739 -23.676603,6.590011 -0.35683,0.356831 10.51201,43.035542 11.86382,46.585712 0.31954,0.83917 4.739793,0.045 15.257563,-2.74144 14.97046,-3.965996 17.11511,-4.414096 16.05561,-3.354596 -0.54871,0.54872 -29.439453,8.402776 -30.938903,8.410856 -0.38004,0.002 -0.89646,-0.33377 -1.1476,-0.74627 z M 51.582067,91.491944 c -5.79115,-4.98134 -2.40418,-14.02959 5.25161,-14.02959 2.74554,0 4.24008,0.6839 6.02222,2.75576 3.18695,3.70505 3.00887,7.15962 -0.55267,10.72116 -3.56154,3.56154 -7.01611,3.73962 -10.72116,0.55267 z m 58.607313,-7.87959 c -0.61271,-2.3375 -1.79668,-6.64587 -2.63106,-9.574152 -0.83437,-2.928283 -1.35639,-5.484799 -1.16005,-5.681146 0.36353,-0.363521 18.9607,4.521297 19.77307,5.193683 0.55615,0.460313 -13.11906,14.311615 -14.12967,14.311615 -0.40605,0 -1.23958,-1.9125 -1.85229,-4.25 z m 13.74619,-9.374075 c -0.57268,-0.572675 -15.10734,-4.311176 -15.44569,-3.972827 -0.33885,0.338845 2.09578,11.002342 3.31693,14.527922 0.34583,0.99845 2.28989,-0.3445 6.43143,-4.44282 3.26467,-3.23061 5.82847,-5.981133 5.69733,-6.112275 z m 46.94573,1.795334 c -3.58775,-3.964413 -0.83024,-10.171259 4.51876,-10.171259 5.1213,0 7.7919,6.911139 3.99751,10.345012 -2.41517,2.185698 -6.4556,2.103258 -8.51627,-0.173753 z"
       id="path1" />
  </g>
</svg>
