<?xml version="1.0" encoding="UTF-8" standalone="no"?>
<!-- Created with Inkscape (http://www.inkscape.org/) -->

<svg
   version="1.1"
   id="svg1"
   width="400"
   height="342"
   viewBox="0 0 400 342"
   xmlns="http://www.w3.org/2000/svg"
   xmlns:svg="http://www.w3.org/2000/svg">
  <defs
     id="defs1" />
  <g
     id="g1">
    <path
       id="path83"
       style="fill:#151515;stroke:none;stroke-width:24.1934"
       d="m 121.78516,24.064853 -5.64063,3.916016 -12.22265,9.402344 -6.111333,5.013672 -0.46875,16.923828 0.46875,12.222656 7.052733,5.955078 12.2207,9.402344 6.58204,2.976562 17.86328,-13.318359 6.11132,-5.015625 0.47071,-6.580078 V 49.918369 l -0.47071,-7.363281 -8.93164,-7.052735 -12.22265,-9.40039 z m 0,1.72461 5.64062,2.820312 13.16211,10.029297 4.38867,4.701172 -4.38867,4.544922 -13.16211,9.871094 -4.70117,3.134765 -6.58203,-4.074219 -16.92383,-12.537109 v -1.878906 l 15.04492,-11.126953 z m 85.43554,13.644531 c -10.44171,0.198714 -20.14566,7.68589 -23.07031,18.214844 -1.80718,6.504928 -0.29406,13.363302 -2.50781,19.74414 -2.3443,6.753773 -9.5557,10.24731 -11.5957,16.923826 -1.70072,5.5623 2.58089,9.795746 2.50781,15.042966 -0.0269,2.54766 -1.90085,4.43101 -2.97657,6.58203 -1.8532,3.70574 -3.8399,8.94 -3.60546,13.16211 0.55448,9.96559 10.14987,11.92967 16.92382,6.58203 l 0.002,-0.002 c 3.51233,19.06688 5.28371,39.01001 3.76172,58.29102 l 5.64062,-1.87891 4.70117,13.16211 c -5.18359,1.36455 -9.06399,5.78524 -13.16406,9.08789 -9.62145,7.75062 -17.23618,17.47353 -25.38477,26.64062 -7.03329,7.91255 -14.22604,16.91864 -24.44531,20.6836 -0.52218,-6.61302 -4.40099,-15.04348 -2.66406,-21.625 1.82656,-6.9244 15.9611,-11.69483 10.65625,-20.6836 -3.44222,-5.83255 -12.4472,3.4542 -15.51367,5.32813 -3.12421,1.90892 -7.09217,1.66303 -10.3418,3.28906 -6.46495,3.23254 -10.6224,9.14585 -12.84961,15.82813 -0.83173,2.49746 -2.59079,7.72389 -0.7832,10.18554 3.03484,4.13075 8.01257,-3.15597 8.93164,-5.48437 h 0.93945 c 0,8.59687 -1.52131,17.40871 -6.89453,24.44336 -6.574234,8.60683 -16.428825,14.43787 -21.154296,24.44531 -3.796712,8.03955 -2.629273,15.18796 -1.095703,23.50586 H 53.152344 l 3.761718,-4.70117 -4.701171,2.82031 1.878906,-13.16211 h -0.939453 l -2.822266,14.10352 H 49.390625 L 43.75,313.38126 l 4.699219,7.52148 -20.683594,0.94141 v 0.93945 H 369.99609 v -1.87891 H 283.5 l 3.75977,-8.46289 -3.75977,5.64258 h -0.94141 v -11.2832 h -1.88086 v 12.22265 h -0.93945 l -5.64258,-5.64062 5.64258,7.52148 h -35.72851 c -0.70118,-8.89258 -16.88069,-11.08403 -24.44532,-11.2832 1.49521,-18.93391 7.56368,-37.4996 9.40235,-56.41211 1.40074,-14.41825 0,-29.69328 0,-44.18945 v -22.56446 c 0,-5.29503 -0.81746,-8.88178 3.76172,-12.22265 L 229.9082,136.6254 c 8.38759,0 13.33349,5.27409 20.6836,-0.62696 2.08065,-1.67165 3.02986,-2.48566 3.76172,-5.01367 l -9.40235,6.58008 -6.58203,-1.56641 -8.46094,-0.3125 v -6.58203 l 12.22071,-3.60351 7.52343,2.66406 c -2.85462,-9.08274 -13.81994,-0.94141 -19.74414,-0.94141 l -1.0957,-10.34179 -13.94727,-17.863286 -5.95507,-9.402339 1.2539,-6.582032 c 14.48851,2.288597 15.0055,-13.456235 15.98242,-23.503906 0.34857,-3.587174 1.26555,-5.852162 -0.31445,-9.402344 -1.52657,-3.434661 -4.79598,-6.628575 -8.14844,-8.304687 -3.42113,-1.710579 -6.98232,-2.45491 -10.46289,-2.388672 z m -60.99023,5.794922 v 17.855469 l -0.14453,7.365234 -6.42578,5.640625 -15.98243,11.439453 V 69.664463 l 0.46875,-7.521485 7.05274,-5.953125 z M 84.189453,55.5629 c -5.213469,4.116094 -10.587876,7.738697 -14.730469,13.16211 -7.657487,10.024138 -8.77539,21.70304 -8.77539,33.84765 0,4.92426 0.439539,16.89611 5.640625,18.80274 -0.80615,-3.83278 -2.637753,-7.39491 -3.447266,-11.28125 C 60.484205,98.613444 61.664557,85.690363 67.578125,75.307041 70.588336,70.020772 74.82795,65.243553 79.488281,61.359775 81.600424,59.600908 85.70001,58.206513 84.189453,55.5629 Z m 267.013667,1.878906 -10.34179,15.042969 c 3.67612,-1.154719 12.67022,-11.628077 10.34179,-15.042969 z m -125.99804,0.208985 c 0,7.752243 -0.41013,21.008693 -9.40039,24.130859 -3.75432,1.304106 -7.66455,-0.900965 -11.28321,-1.568359 l 2.82032,9.402344 h -11.28125 l 5.16992,-15.982422 5.64062,-4.701172 2.35157,-7.052735 5.64257,0.783204 z m 48.90234,0.732422 c -11.84087,0 -23.13004,8.024465 -30.39844,16.921875 -2.34187,2.867418 -5.23127,4.883011 -6.26757,8.46289 12.38243,-7.168819 20.07451,-24.445312 36.66601,-24.445312 4.52185,0 8.86266,2.854151 13.16406,3.759766 -2.98021,-4.063991 -8.32485,-4.699219 -13.16406,-4.699219 z m 35.72852,2.820312 -17.86328,13.789063 -7.05274,5.955078 -0.46875,6.580078 v 15.042966 l 0.46875,6.42578 13.63281,10.8125 12.22266,7.99023 10.3418,-7.05078 14.57422,-11.5957 0.46875,-6.58203 V 87.527744 l -0.46875,-6.580078 -7.05274,-5.955078 z m 52.71289,11.56836 c -5.16186,-0.07311 -14.56535,3.263764 -16.98633,5.353515 l 19.74414,-4.699218 c -0.6015,-0.437313 -1.56661,-0.637426 -2.75781,-0.654297 z m -75.28906,10.05664 14.10351,10.968749 7.99219,6.894526 0.46875,7.52149 v 17.86328 l -15.04297,-10.96875 -7.99219,-6.26758 -0.46875,-14.730466 z m 47.00976,0 v 18.802735 l -0.46875,7.20898 -7.05273,5.79883 -15.98243,11.4375 v -17.86328 l 0.46876,-7.52149 7.05273,-5.955076 z m 11.2832,1.878907 c 1.52172,4.147441 12.60872,7.180854 16.92383,7.521484 v -0.939453 z m -150.43164,6.318359 6.58203,1.410156 5.64063,-0.46875 10.3418,12.691403 10.02929,13.16211 0.3125,22.5664 2.82032,32.90626 h 0.0117 l -18.80469,5.64062 v 0.93945 l 15.98437,-4.69922 v 50.76954 24.44531 l -4.54492,26.32617 -3.91797,23.50391 -2.03711,8.93164 -12.06445,0.4707 0.93945,-8.46289 v -27.26563 l 0.94141,-27.26562 -3.75977,-36.66797 c 4.41365,0 10.64992,0.47804 12.69141,-4.69922 1.04032,-2.6358 -2.10366,-6.21537 -3.13281,-8.46289 -1.65726,-3.6161 -1.68646,-8.31005 -2.66407,-12.22266 -4.39062,-17.56265 -7.83593,-36.44531 -7.83593,-54.53124 h -1.87891 l 5.95508,44.18945 2.82031,12.22265 0.14453,4.54493 -7.99219,2.03711 c -5.93752,-9.81 -5.49331,-23.77991 -7.52148,-34.78907 h -0.93945 l 4.54297,28.20703 2.97851,9.40235 -0.9414,7.52148 c -5.94237,-3.73523 -6.79091,-11.44212 -3.76172,-16.92383 l -7.51953,4.70118 -0.94141,-34.78711 -2.82031,-21.625 3.75976,-12.22266 -1.25195,-15.98242 0.62695,-10.343746 z m 71.45508,11.544919 -23.5039,17.86523 18.80273,-12.22265 z m -215.304686,24.44531 7.521485,16.92383 h 0.941406 c -0.931312,-4.42211 -4.226358,-15.37062 -8.462891,-16.92383 z m 34.78711,6.11133 -16.923828,12.84961 -7.050782,5.64062 -0.46875,7.36524 0.144532,19.74414 6.423828,6.42578 13.164062,10.18555 7.521485,3.28906 17.863279,-13.47461 6.11133,-5.48437 0.46875,-7.52149 -0.14453,-19.74414 -5.48438,-5.01563 -14.103512,-10.8125 z m 1.392578,1.54102 c 2.257797,0.0353 4.486532,2.55541 6.128906,3.7871 5.057349,3.79321 15.094842,8.73522 16.923832,14.88672 L 87.939453,170.26602 H 87 L 64.433594,153.34219 c 1.783086,-6.00102 11.944803,-11.15247 16.923828,-14.88672 1.570175,-1.17761 3.614686,-3.47824 5.642578,-3.75976 0.150606,-0.0209 0.300652,-0.0297 0.451172,-0.0273 z m -51.222656,3.63085 c 1.669362,4.55294 13.110493,9.34145 17.863281,10.3418 v -0.94141 z m 141.968754,7.51954 c -6.48353,1.36454 -12.81339,6.41783 -18.80274,9.24609 -9.21003,4.34931 -19.92858,6.73828 -30.08594,6.73828 v 1.88086 c 12.88496,0 26.20046,-4.48205 37.60743,-10.18555 3.97139,-1.98631 8.9064,-3.90156 11.28125,-7.67968 z m -113.761723,8.46484 15.982422,11.90625 6.111328,5.17187 0.46875,7.36524 v 17.86328 l -15.982422,-10.96875 -7.052734,-5.95508 -0.46875,-14.10351 z m -16.365235,1.00977 c -5.058532,0.0416 -11.881437,1.48115 -12.78125,3.68945 l 17.863282,-2.82031 c -0.848166,-0.61694 -2.782698,-0.88807 -5.082032,-0.86914 z m 159.593748,37.75976 c 0.55181,-0.0355 1.07958,-0.004 1.56055,0.13867 1.79763,0.53431 2.20823,2.12849 2.97656,3.60352 1.33507,2.56138 3.96023,6.3617 2.19531,9.40234 -1.9645,3.38221 -9.83205,3.8134 -12.22265,0.625 -0.95285,-1.27047 -0.49224,-3.85391 -0.47071,-5.32812 0.0269,-2.58536 0.74067,-4.97046 0.94141,-7.51953 1.49118,-0.1094 3.36472,-0.81549 5.01953,-0.92188 z m -8.78125,13.14258 c 6.00967,8.78343 4.64115,20.72508 5.64258,31.02539 0.32165,3.30872 1.98052,7.04614 0.46875,10.3418 -2.03704,4.44648 -6.53856,8.40766 -9.55859,12.22265 -5.48909,6.93345 -11.11772,13.74888 -16.60938,20.68555 -4.12791,5.21414 -8.85936,8.26773 -13.00586,13.16211 -1.02552,1.20989 -3.60547,2.93142 -3.60547,4.70117 0,2.6455 4.79343,5.4538 6.58204,6.89453 5.89472,4.74876 11.37652,10.97495 17.86328,14.73047 v 0.93945 h -37.60743 c -3.13981,0 -11.25136,1.47436 -13.78906,-0.46875 -3.57168,-2.73605 1.17491,-11.98814 1.56641,-15.51367 1.52415,-13.71331 1.04047,-28.03373 -2.82031,-41.36914 4.76504,-3.00969 9.80791,-5.52239 14.10351,-9.40039 10.42613,-9.41246 18.30343,-21.1257 28.20508,-31.02734 5.90872,-5.90874 14.1319,-15.14855 22.56445,-16.92383 z m -65.82422,15.98437 h 0.0117 l 8.46094,2.82032 c -2.54416,6.44515 -10.47489,8.6124 -11.9082,15.98242 -0.77924,4.00664 1.09725,10.07681 1.8789,14.10351 0.39164,2.0225 1.51575,5.44217 0.14649,7.36524 -1.01858,1.44297 -3.27683,2.09502 -5.92578,2.35742 l 7.33789,-0.32031 c 2.73808,14.8652 4.88918,30.18199 1.56836,45.1289 -0.59217,2.66231 -1.45571,9.08366 -3.75977,10.8125 -1.817,1.36212 -8.99705,1.17383 -9.7168,-1.41015 -0.78866,-2.8311 2.51044,-6.80829 3.44727,-9.40235 2.53231,-7.01272 3.76172,-14.19454 3.76172,-21.625 h -1.87891 c 0,10.38937 -1.23182,20.05556 -6.73828,29.14649 -1.98873,3.28463 -3.61603,3.81249 -7.36523,3.75976 -1.48795,-0.0261 -4.02065,0.25249 -4.23047,-1.8789 -0.25839,-2.62208 3.16982,-6.14704 4.23047,-8.46094 2.2813,-4.97795 3.61563,-10.51277 3.75976,-15.98438 h -1.8789 c 0,8.04483 -2.12862,21.69082 -10.3418,25.85547 -2.48319,1.25835 -6.682563,0.47071 -9.402345,0.47071 -2.480224,0 -8.176633,1.07648 -9.873047,-1.09571 -2.957725,-3.79213 -1.801524,-13.53874 -0.46875,-17.70703 3.583536,-11.21802 13.07819,-17.9017 20.683592,-26.32617 2.81346,-3.11656 4.40584,-6.89634 6.58203,-10.3418 l 10.86524,-0.47265 c -3.85499,-0.0108 -7.84525,-0.46875 -9.93164,-0.46875 l 3.76172,-23.50586 -12.22266,13.16406 c 0,-2.76892 -0.32751,-5.75293 0.31445,-8.46289 1.69103,-7.16277 6.89196,-14.0501 13.78906,-16.92383 2.44443,-1.0188 5.1317,-0.87619 7.52149,-2.03711 2.63123,-1.27988 4.91664,-3.2406 7.52148,-4.54297 z m -10.7539,42.77735 c 1.17793,0.003 2.3218,-0.0399 3.41797,-0.14844 z m -2.40821,-34.31641 -0.93945,2.82031 h 2.82031 l -1.8789,-2.82031 z m -72.392574,14.83594 -1.880859,1.88086 h 1.878906 l 2.822266,2.82031 z m 2.820313,4.70117 1.878906,1.88086 2.820313,-4.70117 h 0.941406 l 3.759765,4.70117 h 0.941407 l 3.759765,-4.70117 h 0.941407 l 2.820312,4.70117 5.642578,-4.70117 h 0.939453 l -1.880859,-1.88086 -2.820313,4.70117 h -0.939453 l -5.642578,-4.70117 -2.820312,4.70117 h -0.939454 l -2.820312,-4.70117 -5.642578,4.70117 z m -14.103516,-4.69922 c 2.718041,4.91856 6.558368,9.07351 9.398438,1.88281 l -2.816407,2.81641 h -1.880859 z m 168.294917,3.9668 h 1.88086 l -0.9414,18.80273 -0.46875,8.46289 -4.23047,3.75977 -13.16406,11.91016 -6.58008,3.75976 -8.46289,-6.26758 v -0.9414 l 20.05859,-24.44336 z m -168.289058,7.30078 c 2.358833,4.71738 7.200435,9.48829 9.402344,1.88086 l -2.822265,2.82031 z m 9.402344,1.88086 6.582032,4.70117 2.820312,-4.70117 h 0.939453 l 2.822266,4.70117 h 2.820312 l 2.820313,-4.70117 H 65.375 l 2.820312,4.70117 6.580079,-4.70117 -1.878907,-1.88086 -2.822265,4.70117 h -0.939453 l -3.761719,-4.70117 h -0.939453 l -3.761719,4.70117 h -0.941406 l -3.759766,-4.70117 h -0.941406 l -2.820313,4.70117 -4.701172,-4.70117 z m 159.830074,19.94922 h 0.002 l -0.94141,11.2832 v 17.86328 l -1.87891,13.16211 c -9.99601,0 -13.72049,-7.30981 -16.61132,-15.98242 -0.76174,-2.28374 -2.92455,-6.09663 -1.72461,-8.46289 0.95285,-1.875 3.66872,-3.25878 5.17187,-4.69922 4.8065,-4.60622 10.02256,-10.18402 15.98242,-13.16406 z" />
  </g>
</svg>
